<svg width="25" height="24" viewBox="0 0 25 24" fill="none" xmlns="http://www.w3.org/2000/svg">
  <g id="Frame">
    <path id="Vector" d="M5.95077 10.7642L8.09076 11.6685C8.34683 11.157 8.61204 10.6637 8.8864 10.1887C9.16076 9.71374 9.46256 9.23875 9.79179 8.76376L8.25538 8.46232L5.95077 10.7642ZM9.84666 13.0387L12.9743 16.1352C13.7426 15.8429 14.5656 15.3954 15.4436 14.7925C16.3215 14.1896 17.1446 13.5045 17.9128 12.7372C19.1931 11.4584 20.1946 10.038 20.917 8.47602C21.6395 6.91403 21.955 5.47536 21.8636 4.16C20.5466 4.06866 19.1017 4.38379 17.5287 5.10541C15.9557 5.82703 14.529 6.82726 13.2487 8.10608C12.4805 8.87337 11.7946 9.69547 11.191 10.5724C10.5874 11.4493 10.1393 12.2714 9.84666 13.0387ZM14.7302 11.2575C14.3096 10.8373 14.0992 10.3212 14.0992 9.70917C14.0992 9.09716 14.3096 8.58107 14.7302 8.16088C15.1509 7.7407 15.6722 7.53061 16.2941 7.53061C16.916 7.53061 17.4373 7.7407 17.8579 8.16088C18.2786 8.58107 18.489 9.09716 18.489 9.70917C18.489 10.3212 18.2786 10.8373 17.8579 11.2575C17.4373 11.6776 16.916 11.8877 16.2941 11.8877C15.6722 11.8877 15.1509 11.6776 14.7302 11.2575ZM15.2515 20.0539L17.5561 17.752L17.2543 16.2175C16.7788 16.5463 16.3032 16.8432 15.8277 17.1081C15.3521 17.373 14.8583 17.6333 14.3461 17.8891L15.2515 20.0539ZM23.839 2.15956C24.1865 4.37009 23.9716 6.52125 23.1942 8.61304C22.4169 10.7048 21.0771 12.7007 19.1749 14.6007L19.7236 17.3136C19.7967 17.679 19.7784 18.0352 19.6687 18.3823C19.559 18.7294 19.3761 19.0309 19.12 19.2866L14.5108 23.8904L12.2061 18.4919L7.51461 13.806L2.10974 11.5041L6.69153 6.90033C6.9476 6.64457 7.25397 6.46188 7.61064 6.35227C7.9673 6.24265 8.32854 6.22438 8.69435 6.29746L11.4105 6.84553C13.3127 4.94556 15.3064 3.6028 17.3915 2.81724C19.4767 2.03168 21.6258 1.81245 23.839 2.15956ZM4.05769 17.2862C4.69786 16.6468 5.47978 16.3225 6.40346 16.3134C7.32713 16.3042 8.10905 16.6194 8.74922 17.2588C9.38939 17.8982 9.70491 18.6792 9.69576 19.6018C9.68662 20.5243 9.36196 21.3053 8.72179 21.9448C8.26452 22.4015 7.50089 22.7943 6.43089 23.1231C5.36089 23.4519 3.88393 23.7442 2 24C2.25607 22.1183 2.54872 20.6431 2.87795 19.5744C3.20718 18.5056 3.60043 17.7429 4.05769 17.2862ZM5.62154 18.8208C5.43863 19.0035 5.25572 19.3369 5.07282 19.821C4.88991 20.3051 4.76188 20.7938 4.68872 21.2871C5.18256 21.214 5.67183 21.0907 6.15653 20.9171C6.64123 20.7436 6.97504 20.5655 7.15794 20.3828C7.37743 20.1635 7.49632 19.8986 7.51461 19.5881C7.5329 19.2775 7.4323 19.0126 7.21282 18.7934C6.99333 18.5741 6.72812 18.4691 6.41718 18.4782C6.10624 18.4874 5.84102 18.6015 5.62154 18.8208Z" fill="#A3A8B8"/>
  </g>
</svg>
