<svg height="92" viewBox="0 0 424 92" width="424" xmlns="http://www.w3.org/2000/svg"><g fill="#fff" fill-rule="evenodd"><path d="m30.77 32.79c-11.06-1.61-13.37-4-13.37-9.16 0-4.82 3.62-8.14 10.76-8.14s11 3 12 9.55h15c-1.36-14.28-10.81-21.52-27-21.52-15.89 0-26.16 9.15-26.16 21.42 0 13.88 7.54 19.41 26 21.83 10.56 1.6 13.57 3.62 13.57 9.35s-4.72 9.55-11.86 9.55c-10.66 0-13.38-5.33-14.08-11.76h-15.63c.9 14.38 10 23.63 29.67 23.63 17 0 27.45-10.16 27.45-22.93 0-14.88-8.95-19.61-26.35-21.82zm51.8 26.75v-25.35h11.06v-10.36h-11.06v-11.36h-14.49v11.36h-6.73v10.36h6.73v26.65c0 11 5.94 16.6 17 16.6 3.0106334.0295195 6.0040275-.4575413 8.85-1.44v-11.23c-1.7540218.7132816-3.6372598 1.0538309-5.53 1-3.72 0-5.83-2.01-5.83-6.23zm34.09-25.65v-10.06h-14.58v52.6h14.58v-26.35c0-10 6.24-13.57 17-13.47v-13.61c-8.55.13-13.66 3.85-17 10.89z"/><path d="m162.32 22.63c-15.29 0-27 10.76-27 27.35v.81c0 16.79 11.56 26.75 27.45 26.75 14.38 0 23.44-6.34 25.14-17.7h-13.82c-.91 4.42-4.23 7.34-11 7.34-7.94 0-12.67-5-13.07-13.78h37.98v-4c0-18.83-12.1-26.77-25.68-26.77zm-12.07 21.82c1.11-7.44 5.53-11.76 12.07-11.76 6.94 0 11 3.82 11.47 11.76zm68.29-21.82c-12.87 0-22.73 5.53-23.64 18h13.78c.61-4.53 3.22-7.44 8.95-7.44 6.64 0 8.55 3.42 8.55 9.65v2.16h-5.93c-16.09 0-27.36 4.62-27.36 16.89 0 11.06 8.05 15.69 17.6 15.69 8.25 0 12.88-3.22 15.89-7.44v6.33h14.18v-34.33c0-14.28-9.15-19.51-22.02-19.51zm7.64 35.37c0 5.83-4.93 9.35-11.36 9.35-5.33 0-7.65-2.51-7.65-6.33 0-5.64 4.93-7.45 13.38-7.45h5.63z" fill-rule="nonzero"/><path d="m314.38 22.63c-7.067753-.1396623-13.727107 3.302885-17.7 9.15-2.51-6.24-7.74-9.15-14.68-9.15-6.670097-.164159-12.875507 3.4032769-16.09 9.25v-8.05h-14.58v52.6h14.58v-31.07c0-7.14 4.52-10.76 10.16-10.76 5.12 0 8.24 3 8.24 9.75v32.08h14.49v-31.07c0-7.14 4.52-10.76 10.15-10.76 5.23 0 8.25 3 8.25 9.75v32.08h14.48v-33.69c0-13.98-7.54-20.11-17.3-20.11z"/><path d="m342.85 0h14.48v76.43h-14.48z"/><path d="m369.3 23.83h14.48v52.6h-14.48z"/><path d="m376.44.8c-3.061694-.36087893-6.058322 1.06962165-7.702978 3.67717107-1.644655 2.60754943-1.644655 5.92810843 0 8.53565783 1.644656 2.6075494 4.641284 4.03805 7.702978 3.6771711 4.72 0 8.34-3.41 8.34-7.94-.011618-2.17328538-.906936-4.24831397-2.480044-5.74785923s-3.688605-2.29453777-5.859956-2.20214077zm41.56 64.97c-3.72 0-5.83-2-5.83-6.23v-25.35h11.03v-10.36h-11.06v-11.36h-14.48v11.36h-6.74v10.36h6.74v26.65c0 11 5.93 16.6 17 16.6 3.007281.0283753 5.997196-.4586697 8.84-1.44v-11.23c-1.744715.7091921-3.617311 1.0496642-5.5 1z"/></g></svg>