<?xml version="1.0" encoding="UTF-8"?>
<svg width="130px" height="45px" viewBox="0 0 130 45" version="1.1" xmlns="http://www.w3.org/2000/svg" xmlns:xlink="http://www.w3.org/1999/xlink">
    <!-- Generator: Sketch 55.2 (78181) - https://sketchapp.com -->
    <title>logo (3)</title>
    <desc>Created with Sketch.</desc>
    <g id="Breeze_dashboard" stroke="none" stroke-width="1" fill="none" fill-rule="evenodd">
        <g id="Breeze_dashboard-deault-dark" transform="translate(-38.000000, -30.000000)" fill="#FFFFFF" fill-rule="nonzero">
            <g id="logo-(3)" transform="translate(38.000000, 30.000000)">
                <g id="Group" transform="translate(43.173432, 2.398524)">
                    <path d="M30.2693727,5.03690037 C30.2693727,5.61254613 30.0295203,6.28413284 29.5498155,7.00369004 C29.0701107,7.72324723 28.4944649,8.44280443 27.7269373,9.2103321 C27.0073801,9.9298893 26.1918819,10.6494465 25.2804428,11.3690037 C24.3690037,12.0885609 23.5055351,12.7121771 22.5940959,13.2398524 C21.8745387,13.7195572 21.1549815,14.103321 20.4833948,14.4870849 C19.8118081,14.8708487 19.1881919,15.2066421 18.6125461,15.5424354 C18.0369004,15.8782288 17.5092251,16.2140221 17.0295203,16.501845 C16.5498155,16.7896679 16.1180812,17.1254613 15.7822878,17.4132841 C16.6937269,17.5571956 17.4612546,17.7490775 18.1808118,17.8929889 C18.8523985,18.0369004 19.4280443,18.2287823 19.8118081,18.4206642 C20.099631,18.6125461 20.4354244,18.9483395 20.7232472,19.3800738 C21.0110701,19.8118081 21.298893,20.195572 21.5387454,20.6273063 C21.7785978,21.0590406 21.9704797,21.4428044 22.1623616,21.8265683 C22.3062731,22.1623616 22.402214,22.402214 22.402214,22.4501845 C22.402214,22.9778598 22.2583026,23.5535055 21.9704797,24.1771218 C21.6826568,24.800738 21.298893,25.3763838 20.8191882,26 C20.3394834,26.6236162 19.7638376,27.199262 19.0922509,27.7269373 C18.4206642,28.302583 17.701107,28.7822878 16.8856089,29.2619926 C16.0701107,29.6937269 15.2546125,30.0774908 14.3431734,30.4132841 C13.4317343,30.7490775 12.5682657,30.9409594 11.6568266,31.0369004 C11.2250923,30.701107 10.8413284,30.3653137 10.4575646,29.9815498 C10.0738007,29.597786 9.73800738,29.2619926 9.40221402,28.9261993 C9.11439114,28.5904059 8.82656827,28.302583 8.63468635,28.0627306 C8.44280443,27.8228782 8.29889299,27.6789668 8.25092251,27.6309963 C7.81918819,28.302583 7.33948339,28.9741697 6.90774908,29.501845 C6.42804428,30.0774908 5.99630996,30.5571956 5.56457565,30.9409594 C5.13284133,31.3247232 4.65313653,31.6125461 4.22140221,31.8523985 C3.7896679,32.0442804 3.3099631,32.1402214 2.87822878,32.1402214 C2.68634686,32.1402214 2.49446494,32.0442804 2.30258303,31.9483395 C2.11070111,31.804428 1.91881919,31.6605166 1.72693727,31.4686347 C1.53505535,31.2767528 1.34317343,31.0369004 1.19926199,30.797048 C1.05535055,30.5571956 0.863468635,30.3173432 0.767527675,30.1254613 C0.623616236,29.8856089 0.527675277,29.6937269 0.479704797,29.5498155 C0.383763838,29.3579336 0.383763838,29.2619926 0.383763838,29.1660517 C0.383763838,27.8708487 0.671586716,26.4317343 1.19926199,24.800738 C1.72693727,23.2177122 2.49446494,21.5387454 3.45387454,19.8597786 C4.41328413,18.1328413 5.51660517,16.4538745 6.81180812,14.7269373 C8.10701107,13 9.49815498,11.3690037 10.9852399,9.83394834 C11.4649446,8.05904059 11.896679,6.33210332 12.1845018,4.65313653 C12.4723247,2.97416974 12.6642066,1.43911439 12.6642066,0.0479704797 C13.4797048,0.479704797 14.1512915,0.911439114 14.6309963,1.29520295 C15.1107011,1.72693727 15.4944649,2.06273063 15.7822878,2.39852399 C16.1180812,2.78228782 16.3579336,3.16605166 16.501845,3.50184502 C16.597786,3.74169742 16.597786,4.0295203 16.597786,4.46125461 C16.597786,4.55719557 16.597786,4.60516605 16.597786,4.70110701 C16.597786,4.79704797 16.597786,4.84501845 16.5498155,4.94095941 C18.2767528,3.69372694 20.00369,2.73431734 21.7306273,1.96678967 C23.4575646,1.24723247 25.0885609,0.863468635 26.6715867,0.863468635 C26.8634686,0.863468635 27.103321,0.959409594 27.3431734,1.10332103 C27.5830258,1.24723247 27.8708487,1.43911439 28.1107011,1.67896679 C28.398524,1.91881919 28.6383764,2.20664207 28.9261993,2.49446494 C29.2140221,2.78228782 29.4059041,3.11808118 29.6457565,3.40590406 C29.8376384,3.74169742 30.0295203,4.0295203 30.1254613,4.31734317 C30.2214022,4.60516605 30.2693727,4.84501845 30.2693727,5.03690037 Z M2.87822878,28.5904059 C2.97416974,28.5904059 3.16605166,28.4464945 3.35793358,28.1586716 C3.59778598,27.8708487 3.83763838,27.4870849 4.12546125,27.0073801 C4.41328413,26.5276753 4.74907749,25.904059 5.08487085,25.1845018 C5.42066421,24.4649446 5.80442804,23.697417 6.18819188,22.8339483 C6.57195572,21.9704797 6.95571956,21.0590406 7.38745387,20.0516605 C7.77121771,19.0442804 8.20295203,18.0369004 8.58671587,16.9815498 C7.86715867,17.8929889 7.14760148,18.8523985 6.52398524,19.8118081 C5.900369,20.7712177 5.32472325,21.6826568 4.79704797,22.6420664 C4.26937269,23.601476 3.83763838,24.5129151 3.50184502,25.4243542 C3.11808118,26.3357934 2.87822878,27.2472325 2.68634686,28.1107011 C2.63837638,28.302583 2.63837638,28.398524 2.73431734,28.4944649 C2.73431734,28.5424354 2.78228782,28.5904059 2.87822878,28.5904059 Z M12.7121771,18.4206642 C12.0405904,20.099631 11.3690037,21.7306273 10.601476,23.3136531 C9.83394834,24.896679 9.06642066,26.3357934 8.25092251,27.5830258 C9.64206642,27.4391144 10.9852399,27.2472325 12.1845018,26.9594096 C13.3837638,26.6715867 14.4870849,26.2878229 15.4464945,25.8081181 C16.4059041,25.3284133 17.2693727,24.7527675 18.0369004,24.0332103 C18.7564576,23.3136531 19.3800738,22.498155 19.8597786,21.5387454 C19.6199262,21.3948339 19.3321033,21.298893 19.0442804,21.1549815 C18.7564576,21.0590406 18.4686347,20.9630996 18.1328413,20.8671587 C17.797048,20.7712177 17.5092251,20.7232472 17.1734317,20.6273063 C16.8376384,20.5793358 16.5498155,20.4833948 16.2140221,20.4354244 C15.4944649,20.2915129 14.7749077,20.195572 14.0073801,20.1476015 C13.8154982,20.099631 13.6236162,19.9557196 13.3837638,19.5719557 C13.1439114,19.2361624 12.904059,18.8523985 12.7121771,18.4206642 Z M15.5904059,9.59409594 C15.398524,10.3616236 15.1586716,11.1771218 14.8708487,11.9926199 C14.6309963,12.8081181 14.3431734,13.6715867 14.0553506,14.5830258 C15.1586716,13.6715867 16.3579336,12.8081181 17.6531365,12.0405904 C18.9483395,11.2250923 20.195572,10.4095941 21.4907749,9.59409594 C22.7380074,8.77859779 23.9372694,7.86715867 25.0885609,6.90774908 C26.1918819,5.94833948 27.199262,4.89298893 27.9667897,3.69372694 C28.0147601,3.64575646 28.0147601,3.5498155 28.0147601,3.45387454 C28.0147601,3.35793358 27.9667897,3.26199262 27.9188192,3.21402214 C27.8708487,3.11808118 27.8228782,3.0701107 27.7269373,3.02214022 C27.6309963,2.97416974 27.5350554,2.92619926 27.4391144,2.92619926 C26.7675277,2.92619926 25.9520295,3.0701107 25.0405904,3.40590406 C24.1291513,3.74169742 23.1697417,4.17343173 22.1623616,4.79704797 C21.1549815,5.37269373 20.0516605,6.09225092 18.9483395,6.90774908 C17.8450185,7.72324723 16.6937269,8.63468635 15.5904059,9.59409594 Z" id="Shape"></path>
                    <path d="M32.8597786,21.298893 C32.7158672,21.7785978 32.4760148,22.3542435 32.2361624,22.9298893 C31.99631,23.5535055 31.7564576,24.1771218 31.5166052,24.7527675 C31.2767528,25.3284133 31.0848708,25.904059 30.9409594,26.3837638 C30.797048,26.8634686 30.701107,27.199262 30.701107,27.4391144 C30.701107,27.5350554 30.7490775,27.5350554 30.797048,27.5350554 C30.9409594,27.5350554 31.1328413,27.4391144 31.4206642,27.295203 C31.7084871,27.1512915 31.99631,26.9114391 32.3800738,26.6715867 C32.7638376,26.4317343 33.099631,26.1439114 33.4833948,25.8081181 C33.8671587,25.5202952 34.2509225,25.1845018 34.5867159,24.896679 C34.9225092,24.6088561 35.2583026,24.3210332 35.5461255,24.0811808 C35.8339483,23.8413284 36.0258303,23.6494465 36.2177122,23.5055351 C36.3136531,23.601476 36.4575646,23.7453875 36.601476,23.9372694 C36.7453875,24.1291513 36.8892989,24.2730627 37.0332103,24.4169742 C36.7453875,24.704797 36.4095941,25.0405904 36.0258303,25.4243542 C35.5940959,25.8081181 35.1623616,26.1918819 34.6826568,26.6236162 C34.202952,27.0553506 33.7232472,27.4391144 33.195572,27.8708487 C32.6678967,28.302583 32.1881919,28.6383764 31.7084871,28.9741697 C31.2287823,29.3099631 30.7490775,29.5498155 30.3653137,29.7416974 C29.9335793,29.9335793 29.597786,30.0295203 29.3099631,30.0295203 C29.1180812,30.0295203 28.8782288,29.9815498 28.5904059,29.8376384 C28.302583,29.6937269 28.0147601,29.5498155 27.7749077,29.3579336 C27.5350554,29.1660517 27.295203,28.9741697 27.103321,28.7343173 C26.9114391,28.4944649 26.8154982,28.2546125 26.8154982,28.0627306 C27.0073801,27.2472325 27.199262,26.5276753 27.3911439,25.904059 C27.5830258,25.2804428 27.7269373,24.7527675 27.9188192,24.3210332 C28.0627306,23.8892989 28.2066421,23.5055351 28.3505535,23.2656827 C28.4944649,22.9778598 28.5904059,22.7859779 28.6383764,22.6420664 C28.4944649,22.5940959 28.3505535,22.498155 28.2066421,22.4501845 C28.0627306,22.3542435 27.9188192,22.3062731 27.7749077,22.2103321 C27.5830258,22.402214 27.3431734,22.6420664 27.103321,22.8819188 C26.8634686,23.1217712 26.6236162,23.3616236 26.3837638,23.601476 C26.1439114,23.8413284 25.904059,24.0811808 25.6642066,24.2730627 C25.4243542,24.5129151 25.1845018,24.704797 24.9926199,24.896679 L24.0811808,23.9852399 C24.4169742,23.697417 24.800738,23.3136531 25.2324723,22.8819188 C25.6642066,22.4501845 26.1439114,22.0184502 26.5756458,21.5387454 C26.2878229,21.3468635 26,21.1549815 25.7601476,21.0110701 C25.5202952,20.8671587 25.2804428,20.6752768 25.1365314,20.5793358 C24.9446494,20.4354244 24.7527675,20.2915129 24.5608856,20.1476015 C24.4649446,20.099631 24.4649446,20.0516605 24.4649446,19.9077491 C24.4649446,19.7638376 24.5129151,19.5719557 24.6088561,19.3321033 C24.704797,19.0922509 24.8487085,18.804428 24.9926199,18.5166052 C25.1365314,18.2287823 25.3284133,17.9409594 25.5202952,17.6051661 C25.7121771,17.3173432 25.904059,17.0295203 26.0479705,16.7896679 C26.2398524,16.5498155 26.3837638,16.3579336 26.4797048,16.1660517 C26.6236162,16.0221402 26.6715867,15.9261993 26.7195572,15.9261993 C26.7675277,15.9261993 26.8154982,15.9741697 26.9594096,16.0221402 C27.103321,16.0701107 27.2472325,16.1660517 27.3911439,16.2140221 C27.5350554,16.3099631 27.6789668,16.4059041 27.8228782,16.501845 C27.9667897,16.597786 28.0627306,16.6937269 28.0627306,16.7416974 C28.0627306,16.7896679 28.1107011,16.9335793 28.1107011,17.1254613 C28.1107011,17.3173432 28.1586716,17.5571956 28.1586716,17.8450185 C28.6383764,18.0848708 29.1180812,18.3726937 29.6457565,18.7084871 C30.1734317,19.0442804 30.6051661,19.3321033 31.0369004,19.6199262 C31.5166052,19.9557196 31.99631,20.2915129 32.4280443,20.6273063 C32.5719557,20.7232472 32.6678967,20.8671587 32.7158672,21.0110701 C32.9077491,21.0110701 32.9077491,21.1549815 32.8597786,21.298893 Z" id="Path"></path>
                    <path d="M49.0738007,24.4169742 C47.9225092,25.5202952 46.8671587,26.4797048 45.8597786,27.199262 C44.8523985,27.9667897 43.8929889,28.5424354 42.9815498,29.0221402 C42.0701107,29.501845 41.2066421,29.7896679 40.3431734,30.0295203 C39.5276753,30.2214022 38.7121771,30.3173432 37.896679,30.3173432 C37.5608856,30.3173432 37.1771218,30.1734317 36.7933579,29.9335793 C36.3616236,29.6937269 36.0258303,29.4059041 35.6420664,29.0221402 C35.3062731,28.6863469 35.0184502,28.302583 34.7785978,27.9188192 C34.5387454,27.5350554 34.4428044,27.199262 34.4428044,26.9114391 C34.4428044,25.904059 34.5867159,24.9446494 34.8745387,24.1291513 C35.1623616,23.2656827 35.498155,22.498155 35.9778598,21.8265683 C36.4575646,21.1549815 36.9372694,20.5313653 37.5608856,20.00369 C38.1365314,19.4760148 38.7601476,19.0442804 39.3837638,18.7084871 C40.0073801,18.3726937 40.6309963,18.0848708 41.302583,17.9409594 C41.9261993,17.7490775 42.501845,17.701107 43.0295203,17.701107 C43.4132841,17.701107 43.797048,17.797048 44.1808118,18.0369004 C44.5645756,18.2767528 44.900369,18.5166052 45.1881919,18.8523985 C45.4760148,19.1881919 45.7638376,19.5239852 45.9557196,19.8597786 C46.1476015,20.195572 46.2435424,20.5313653 46.2435424,20.7712177 C46.2435424,21.202952 46.0516605,21.6346863 45.7158672,22.0664207 C45.3800738,22.498155 44.8523985,22.9778598 44.2287823,23.4095941 C43.6051661,23.8892989 42.7896679,24.3210332 41.9261993,24.800738 C41.0147601,25.2804428 40.0073801,25.7601476 38.9520295,26.2398524 C38.904059,26.5276753 38.904059,26.8154982 38.904059,27.103321 C38.904059,27.4870849 39,27.7269373 39.1439114,27.8708487 C39.2878229,28.0147601 39.6236162,28.0627306 40.103321,28.0627306 C40.9188192,28.0627306 41.6863469,27.9188192 42.4059041,27.6309963 C43.1254613,27.3431734 43.8450185,27.0073801 44.5166052,26.5756458 C45.1881919,26.1439114 45.8118081,25.6642066 46.4354244,25.0885609 C47.0590406,24.5129151 47.6826568,23.9852399 48.2583026,23.4095941 L49.0738007,24.4169742 Z M42.5498155,19.7638376 C42.3099631,19.7638376 42.0221402,19.9077491 41.7343173,20.1476015 C41.4464945,20.4354244 41.1586716,20.7712177 40.8228782,21.202952 C40.5350554,21.6346863 40.2472325,22.1143911 39.9594096,22.6900369 C39.6715867,23.2656827 39.4317343,23.8413284 39.2398524,24.4649446 C39.7195572,24.1771218 40.1512915,23.8413284 40.5830258,23.5055351 C41.0147601,23.1697417 41.398524,22.8339483 41.7822878,22.4501845 C42.1180812,22.0664207 42.4059041,21.7306273 42.597786,21.3468635 C42.7896679,20.9630996 42.9335793,20.5793358 42.9335793,20.195572 C42.9335793,20.099631 42.8856089,20.00369 42.8376384,19.9077491 C42.7896679,19.8118081 42.6937269,19.7638376 42.5498155,19.7638376 Z" id="Shape"></path>
                    <path d="M61.0664207,24.4169742 C59.9151292,25.5202952 58.8597786,26.4797048 57.8523985,27.199262 C56.8450185,27.9667897 55.8856089,28.5424354 54.9741697,29.0221402 C54.0627306,29.501845 53.199262,29.7896679 52.3357934,30.0295203 C51.5202952,30.2214022 50.704797,30.3173432 49.8892989,30.3173432 C49.5535055,30.3173432 49.1697417,30.1734317 48.7859779,29.9335793 C48.3542435,29.6937269 48.0184502,29.4059041 47.6346863,29.0221402 C47.298893,28.6863469 47.0110701,28.302583 46.7712177,27.9188192 C46.5313653,27.5350554 46.4354244,27.199262 46.4354244,26.9114391 C46.4354244,25.904059 46.5793358,24.9446494 46.8671587,24.1291513 C47.1549815,23.2656827 47.4907749,22.498155 47.9704797,21.8265683 C48.4501845,21.1549815 48.9298893,20.5313653 49.5535055,20.00369 C50.1291513,19.4760148 50.7527675,19.0442804 51.3763838,18.7084871 C52,18.3726937 52.6236162,18.0848708 53.295203,17.9409594 C53.9188192,17.7490775 54.4944649,17.701107 55.0221402,17.701107 C55.4059041,17.701107 55.7896679,17.797048 56.1734317,18.0369004 C56.5571956,18.2767528 56.8929889,18.5166052 57.1808118,18.8523985 C57.4686347,19.1881919 57.7564576,19.5239852 57.9483395,19.8597786 C58.1402214,20.195572 58.2361624,20.5313653 58.2361624,20.7712177 C58.2361624,21.202952 58.0442804,21.6346863 57.7084871,22.0664207 C57.3726937,22.498155 56.8450185,22.9778598 56.2214022,23.4095941 C55.597786,23.8892989 54.7822878,24.3210332 53.9188192,24.800738 C53.0073801,25.2804428 52,25.7601476 50.9446494,26.2398524 C50.896679,26.5276753 50.896679,26.8154982 50.896679,27.103321 C50.896679,27.4870849 50.9926199,27.7269373 51.1365314,27.8708487 C51.2804428,28.0147601 51.6162362,28.0627306 52.095941,28.0627306 C52.9114391,28.0627306 53.6789668,27.9188192 54.398524,27.6309963 C55.1180812,27.3431734 55.8376384,27.0073801 56.5092251,26.5756458 C57.1808118,26.1439114 57.804428,25.6642066 58.4280443,25.0885609 C59.0516605,24.5129151 59.6752768,23.9852399 60.2509225,23.4095941 L61.0664207,24.4169742 Z M54.5424354,19.7638376 C54.302583,19.7638376 54.0147601,19.9077491 53.7269373,20.1476015 C53.4391144,20.4354244 53.1512915,20.7712177 52.8154982,21.202952 C52.5276753,21.6346863 52.2398524,22.1143911 51.9520295,22.6900369 C51.6642066,23.2656827 51.4243542,23.8413284 51.2324723,24.4649446 C51.7121771,24.1771218 52.1439114,23.8413284 52.5756458,23.5055351 C53.0073801,23.1697417 53.3911439,22.8339483 53.7749077,22.4501845 C54.1107011,22.0664207 54.398524,21.7306273 54.5904059,21.3468635 C54.7822878,20.9630996 54.9261993,20.5793358 54.9261993,20.195572 C54.9261993,20.099631 54.8782288,20.00369 54.8302583,19.9077491 C54.7822878,19.8118081 54.6863469,19.7638376 54.5424354,19.7638376 Z" id="Shape"></path>
                    <path d="M74.498155,24.4169742 C73.6346863,25.2324723 72.7712177,26 71.9077491,26.7675277 C70.99631,27.5350554 70.1328413,28.302583 69.2214022,29.0221402 C69.2214022,29.1180812 69.2214022,29.2140221 69.2693727,29.2619926 C69.2693727,29.3579336 69.2693727,29.4538745 69.2693727,29.5498155 C69.2693727,30.5092251 69.0774908,31.4686347 68.6937269,32.4760148 C68.3099631,33.4833948 67.8302583,34.4428044 67.2066421,35.402214 C66.5830258,36.3616236 65.9114391,37.2730627 65.1439114,38.1365314 C64.3763838,39 63.6088561,39.7195572 62.8413284,40.3911439 C62.0738007,41.0147601 61.3542435,41.5424354 60.6346863,41.9261993 C59.9151292,42.3099631 59.3394834,42.501845 58.8597786,42.501845 C58.5239852,42.4538745 58.1881919,42.3579336 57.8523985,42.1180812 C57.5166052,41.8782288 57.2287823,41.6383764 56.9889299,41.3505535 C56.7490775,41.0627306 56.5092251,40.7749077 56.3653137,40.4870849 C56.2214022,40.199262 56.1254613,39.9594096 56.1254613,39.7675277 C56.1254613,39.1439114 56.4132841,38.4243542 56.9409594,37.704797 C57.4686347,36.9372694 58.1881919,36.1697417 59.0516605,35.3062731 C59.9151292,34.4428044 60.9225092,33.5793358 62.0738007,32.7158672 C63.2250923,31.804428 64.3763838,30.8929889 65.5756458,29.9815498 C65.7195572,29.4538745 65.7675277,28.9741697 65.7675277,28.5424354 C65.7675277,28.4944649 65.7675277,28.4464945 65.7675277,28.398524 C65.7675277,28.302583 65.7195572,28.2546125 65.6715867,28.1586716 C65.6236162,28.0627306 65.5276753,28.0147601 65.4797048,27.9667897 C65.3837638,27.9188192 65.2878229,27.8708487 65.095941,27.8708487 C64.904059,27.8708487 64.7601476,27.9188192 64.5682657,27.9667897 C64.4243542,28.0147601 64.1365314,28.1107011 63.8487085,28.2066421 C63.800738,28.2546125 63.704797,28.2066421 63.5608856,28.1107011 C63.4169742,28.0147601 63.2250923,27.9188192 63.0332103,27.8228782 C62.8413284,27.7269373 62.601476,27.5830258 62.3616236,27.3911439 C62.1217712,27.2472325 61.9298893,27.103321 61.7380074,26.9594096 C61.5461255,26.8154982 61.402214,26.7195572 61.2583026,26.6236162 C61.1143911,26.5276753 61.0664207,26.4797048 61.0664207,26.4317343 C61.6900369,26.0479705 62.2656827,25.6642066 62.8413284,25.2324723 C63.4169742,24.800738 63.896679,24.3690037 64.3284133,23.9372694 C64.7601476,23.5055351 65.095941,23.0258303 65.3357934,22.5940959 C65.5756458,22.1623616 65.7195572,21.6826568 65.7195572,21.298893 C65.7195572,21.2509225 65.7195572,21.202952 65.7195572,21.0590406 C65.7195572,20.9630996 65.6715867,20.8191882 65.6236162,20.6752768 C65.5756458,20.5313653 65.5276753,20.4354244 65.4797048,20.3394834 C65.3837638,20.2435424 65.3357934,20.195572 65.1918819,20.195572 C65,20.195572 64.7601476,20.3394834 64.5202952,20.6273063 C64.2804428,20.9151292 63.9926199,21.2509225 63.6088561,21.6826568 C63.2730627,22.1143911 62.8892989,22.5940959 62.4095941,23.1697417 C61.9298893,23.697417 61.402214,24.2730627 60.8265683,24.800738 C60.7306273,24.6568266 60.5867159,24.5608856 60.4907749,24.4169742 C60.3948339,24.3210332 60.298893,24.2250923 60.202952,24.1291513 C60.1070111,24.0332103 60.0110701,23.9372694 59.9630996,23.8413284 C60.7785978,23.1217712 61.4501845,22.3542435 62.0258303,21.6346863 C62.601476,20.9151292 63.1291513,20.2435424 63.5608856,19.6199262 C63.9926199,19.0442804 64.3763838,18.5645756 64.7121771,18.1808118 C65.0479705,17.797048 65.3837638,17.6531365 65.7195572,17.6531365 C65.9594096,17.6531365 66.295203,17.701107 66.6789668,17.8450185 C67.0627306,17.9889299 67.4464945,18.1808118 67.8302583,18.3726937 C68.2140221,18.5645756 68.597786,18.804428 68.9335793,19.0922509 C69.2693727,19.3800738 69.5571956,19.6199262 69.7490775,19.8118081 C69.8450185,19.9557196 69.8929889,20.099631 69.8929889,20.3394834 C69.8929889,20.5793358 69.8929889,20.7712177 69.8929889,20.9151292 C69.8929889,21.4907749 69.8450185,22.0664207 69.701107,22.5940959 C69.5571956,23.1217712 69.3653137,23.601476 69.1254613,24.0332103 C68.8856089,24.4649446 68.597786,24.896679 68.2619926,25.2804428 C67.9261993,25.6642066 67.5904059,26 67.2546125,26.2878229 C67.5904059,26.3837638 67.8782288,26.5276753 68.1660517,26.7675277 C68.4538745,27.0073801 68.6937269,27.295203 68.8856089,27.6309963 C69.797048,26.9114391 70.7084871,26.2398524 71.5239852,25.5682657 C72.3394834,24.896679 73.1070111,24.2250923 73.7785978,23.601476 L74.498155,24.4169742 Z M58.2361624,40.2472325 C58.5719557,40.2472325 59.00369,40.0553506 59.5313653,39.6236162 C60.0590406,39.1918819 60.6346863,38.6162362 61.2103321,37.9446494 C61.7859779,37.2250923 62.3616236,36.4575646 62.9372694,35.5940959 C63.5129151,34.7306273 63.9926199,33.8191882 64.4243542,32.9077491 C63.5129151,33.6273063 62.697417,34.3468635 61.8819188,35.0664207 C61.1143911,35.7380074 60.4428044,36.4095941 59.8671587,36.9852399 C59.2915129,37.6088561 58.8597786,38.1365314 58.5239852,38.6642066 C58.1881919,39.1918819 58.0442804,39.6715867 58.0442804,40.103321 C58.0922509,40.199262 58.1402214,40.2472325 58.2361624,40.2472325 Z" id="Shape"></path>
                    <path d="M86.4428044,24.4169742 C85.2915129,25.5202952 84.2361624,26.4797048 83.2287823,27.199262 C82.2214022,27.9667897 81.2619926,28.5424354 80.3505535,29.0221402 C79.4391144,29.501845 78.5756458,29.7896679 77.7121771,30.0295203 C76.896679,30.2214022 76.0811808,30.3173432 75.2656827,30.3173432 C74.9298893,30.3173432 74.5461255,30.1734317 74.1623616,29.9335793 C73.7306273,29.6937269 73.3948339,29.4059041 73.0110701,29.0221402 C72.6752768,28.6863469 72.3874539,28.302583 72.1476015,27.9188192 C71.9077491,27.5350554 71.8118081,27.199262 71.8118081,26.9114391 C71.8118081,25.904059 71.9557196,24.9446494 72.2435424,24.1291513 C72.5313653,23.2656827 72.8671587,22.498155 73.3468635,21.8265683 C73.8265683,21.1549815 74.3062731,20.5313653 74.9298893,20.00369 C75.5055351,19.4760148 76.1291513,19.0442804 76.7527675,18.7084871 C77.3763838,18.3726937 78,18.0848708 78.6715867,17.9409594 C79.295203,17.7490775 79.8708487,17.701107 80.398524,17.701107 C80.7822878,17.701107 81.1660517,17.797048 81.5498155,18.0369004 C81.9335793,18.2767528 82.2693727,18.5166052 82.5571956,18.8523985 C82.8450185,19.1881919 83.1328413,19.5239852 83.3247232,19.8597786 C83.5166052,20.195572 83.6125461,20.5313653 83.6125461,20.7712177 C83.6125461,21.202952 83.4206642,21.6346863 83.0848708,22.0664207 C82.7490775,22.498155 82.2214022,22.9778598 81.597786,23.4095941 C80.9741697,23.8892989 80.1586716,24.3210332 79.295203,24.800738 C78.3837638,25.2804428 77.3763838,25.7601476 76.3210332,26.2398524 C76.2730627,26.5276753 76.2730627,26.8154982 76.2730627,27.103321 C76.2730627,27.4870849 76.3690037,27.7269373 76.5129151,27.8708487 C76.6568266,28.0147601 76.9926199,28.0627306 77.4723247,28.0627306 C78.2878229,28.0627306 79.0553506,27.9188192 79.7749077,27.6309963 C80.4944649,27.3431734 81.2140221,27.0073801 81.8856089,26.5756458 C82.5571956,26.1439114 83.1808118,25.6642066 83.804428,25.0885609 C84.4280443,24.5129151 85.0516605,23.9852399 85.6273063,23.4095941 L86.4428044,24.4169742 Z M79.9188192,19.7638376 C79.6789668,19.7638376 79.3911439,19.9077491 79.103321,20.1476015 C78.8154982,20.4354244 78.5276753,20.7712177 78.1918819,21.202952 C77.904059,21.6346863 77.6162362,22.1143911 77.3284133,22.6900369 C77.0405904,23.2656827 76.800738,23.8413284 76.6088561,24.4649446 C77.0885609,24.1771218 77.5202952,23.8413284 77.9520295,23.5055351 C78.3837638,23.1697417 78.7675277,22.8339483 79.1512915,22.4501845 C79.4870849,22.0664207 79.7749077,21.7306273 79.9667897,21.3468635 C80.1586716,20.9630996 80.302583,20.5793358 80.302583,20.195572 C80.302583,20.099631 80.2546125,20.00369 80.2066421,19.9077491 C80.1586716,19.8118081 80.0627306,19.7638376 79.9188192,19.7638376 Z" id="Shape"></path>
                </g>
                <g id="Group">
                    <path d="M14.2472325,16.7896679 C13.9594096,16.501845 13.6236162,16.4059041 13.2398524,16.4538745 C12.4243542,16.501845 11.8487085,17.0774908 11.8487085,17.8929889 C11.8487085,18.99631 13,19.6678967 13.9114391,19.1402214 C14.4391144,18.804428 14.8708487,18.3247232 15.3505535,17.8929889 C14.9667897,17.5092251 14.5830258,17.1734317 14.2472325,16.7896679 Z" id="Path"></path>
                    <path d="M19.7638376,16.5498155 C19.2361624,16.3099631 18.7564576,16.4059041 18.3247232,16.7896679 C17.8929889,17.1254613 17.5571956,17.5092251 17.1254613,17.8929889 C17.5092251,18.2767528 17.797048,18.6125461 18.1808118,18.900369 C18.4686347,19.1402214 18.804428,19.3321033 19.1881919,19.3321033 C20.0516605,19.3800738 20.7712177,18.6125461 20.6752768,17.701107 C20.5313653,17.1254613 20.2435424,16.7416974 19.7638376,16.5498155 Z" id="Path"></path>
                    <path d="M29.7416974,6.95571956 L18.99631,0.719557196 C17.3173432,-0.239852399 15.2066421,-0.239852399 13.5276753,0.719557196 L2.78228782,6.95571956 C1.10332103,7.91512915 0.0479704797,9.73800738 0.0479704797,11.704797 L0.0479704797,24.1291513 C0.0479704797,26.095941 1.10332103,27.8708487 2.78228782,28.8782288 L13.5276753,35.1143911 C15.2066421,36.0738007 17.3173432,36.0738007 18.99631,35.1143911 L29.7416974,28.8782288 C31.4206642,27.9188192 32.4760148,26.095941 32.4760148,24.1291513 L32.4760148,11.6568266 C32.4280443,9.73800738 31.4206642,7.91512915 29.7416974,6.95571956 Z M18.2287823,28.5424354 C17.7490775,28.5424354 17.3653137,28.1586716 17.3653137,27.6789668 C17.3653137,27.2472325 17.7490775,26.8154982 18.1808118,26.8634686 C18.7084871,26.8634686 18.99631,27.1512915 18.99631,27.7269373 C18.99631,28.1586716 18.6605166,28.5424354 18.2287823,28.5424354 Z M20.6273063,27.7269373 C20.195572,27.7269373 19.7638376,27.3431734 19.8118081,26.9114391 C19.8118081,26.4797048 20.1476015,26.0479705 20.6273063,26.095941 C21.1549815,26.0479705 21.4428044,26.4797048 21.4907749,26.9114391 C21.5387454,27.3911439 21.1070111,27.7269373 20.6273063,27.7269373 Z M21.2509225,19.6199262 C20.7712177,20.195572 20.1476015,20.4833948 19.4280443,20.5793358 C18.5645756,20.6752768 17.8450185,20.3874539 17.2214022,19.7638376 C16.8856089,19.4280443 16.5498155,19.0922509 16.2140221,18.7564576 C15.9261993,19.0442804 15.6383764,19.3321033 15.3505535,19.6199262 C14.9667897,20.00369 14.5350554,20.2915129 14.0073801,20.4833948 C13.4317343,20.6752768 12.904059,20.6273063 12.3763838,20.4354244 C11.7527675,20.195572 11.2250923,19.8118081 10.9372694,19.2361624 C10.7453875,18.900369 10.601476,18.5166052 10.601476,18.1328413 C10.5535055,17.5092251 10.697417,16.9335793 11.0332103,16.4059041 C11.4649446,15.7343173 12.0885609,15.3505535 12.904059,15.2546125 C13.6236162,15.1107011 14.295203,15.3505535 14.8708487,15.7343173 C15.0627306,15.8302583 15.2066421,16.0221402 15.3505535,16.1660517 C15.6383764,16.4538745 15.9261993,16.7416974 16.2619926,17.0774908 C16.597786,16.7416974 16.9335793,16.4059041 17.2693727,16.0221402 C17.701107,15.5904059 18.2287823,15.3505535 18.8523985,15.2546125 C19.7158672,15.1586716 20.4833948,15.4464945 21.1070111,16.0221402 C22.1143911,16.9815498 22.1623616,18.5645756 21.2509225,19.6199262 Z M26.8154982,18.99631 C26.7195572,19.6678967 26.5756458,20.3394834 26.3837638,21.0110701 C26.095941,22.0184502 25.6642066,22.9298893 25.0885609,23.7933579 C24.7527675,24.2250923 24.4169742,24.6568266 24.0811808,25.0885609 C23.9852399,25.2324723 23.9852399,25.2804428 24.0811808,25.3763838 C24.3210332,25.6162362 24.5608856,25.8560886 24.8487085,26.1439114 C24.3690037,26.1439114 23.9852399,26.1439114 23.601476,26.1439114 C23.1697417,26.1439114 22.7859779,26.1439114 22.3542435,26.1439114 C22.2103321,26.1439114 22.1143911,26.095941 22.1143911,25.9520295 C22.1143911,25.1365314 22.1143911,24.3690037 22.1143911,23.5535055 C22.1143911,23.5535055 22.1143911,23.5055351 22.1623616,23.4575646 C22.402214,23.7453875 22.6900369,23.9852399 22.9298893,24.2250923 C23.0258303,24.3210332 23.1217712,24.3690037 23.2177122,24.2250923 C23.601476,23.697417 24.0332103,23.1697417 24.3690037,22.5940959 C24.896679,21.8265683 25.1845018,20.9630996 25.4243542,20.0516605 C25.6642066,19.0922509 25.7121771,18.0848708 25.6642066,17.0774908 C25.5682657,15.6863469 25.1845018,14.3911439 24.4649446,13.1918819 C24.1291513,12.6162362 23.697417,12.0885609 23.2656827,11.5608856 C22.4501845,10.601476 21.4428044,9.88191882 20.2915129,9.35424354 C19.4760148,8.9704797 18.6125461,8.68265683 17.701107,8.58671587 C16.9815498,8.49077491 16.2619926,8.44280443 15.5424354,8.49077491 C14.4870849,8.58671587 13.4797048,8.82656827 12.5202952,9.25830258 C11.6568266,9.64206642 10.8892989,10.1217712 10.2177122,10.7453875 C9.78597786,11.1291513 9.35424354,11.5608856 9.01845018,12.0405904 C8.58671587,12.5682657 8.25092251,13.1918819 7.91512915,13.7675277 C7.48339483,14.6309963 7.14760148,15.5424354 7.05166052,16.5498155 C7.00369004,17.2693727 6.90774908,17.9889299 6.95571956,18.6605166 C7.05166052,19.7158672 7.29151292,20.7232472 7.72324723,21.6826568 C8.20295203,22.6900369 8.77859779,23.601476 9.54612546,24.3690037 C10.2656827,25.0885609 11.0332103,25.7121771 11.9446494,26.1918819 C12.7601476,26.6236162 13.6236162,26.9114391 14.5350554,27.103321 C15.1107011,27.199262 15.7343173,27.2472325 16.3099631,27.295203 C16.3099631,27.6789668 16.3099631,28.0627306 16.3099631,28.5424354 C15.9261993,28.5424354 15.5424354,28.5424354 15.1586716,28.4944649 C14.4870849,28.398524 13.8154982,28.2546125 13.1439114,28.0627306 C11.9446494,27.7269373 10.8892989,27.1512915 9.88191882,26.3837638 C8.73062731,25.5202952 7.77121771,24.4169742 7.05166052,23.1697417 C6.47601476,22.1623616 6.09225092,21.1070111 5.85239852,20.00369 C5.66051661,19.0922509 5.61254613,18.1808118 5.66051661,17.2693727 C5.75645756,15.6863469 6.18819188,14.1512915 6.95571956,12.7601476 C7.33948339,12.0405904 7.81918819,11.3690037 8.39483395,10.7453875 C9.35424354,9.6900369 10.5055351,8.82656827 11.800738,8.20295203 C12.6162362,7.81918819 13.4797048,7.53136531 14.3911439,7.38745387 C15.1107011,7.24354244 15.8782288,7.19557196 16.6457565,7.19557196 C17.6051661,7.24354244 18.5166052,7.38745387 19.4760148,7.67527675 C20.4833948,7.96309963 21.3948339,8.39483395 22.2583026,9.01845018 C22.7859779,9.40221402 23.2656827,9.78597786 23.7453875,10.2177122 C24.4649446,10.8892989 25.0885609,11.6568266 25.5682657,12.4723247 C26.1439114,13.3837638 26.5276753,14.3911439 26.7675277,15.4464945 C26.8634686,15.9741697 26.9594096,16.5498155 27.0073801,17.1254613 C26.8634686,17.7490775 26.9114391,18.3726937 26.8154982,18.99631 Z" id="Shape"></path>
                </g>
            </g>
        </g>
    </g>
</svg>