<?xml version="1.0" encoding="UTF-8"?>
<svg width="179px" height="40px" viewBox="0 0 179 40" version="1.1" xmlns="http://www.w3.org/2000/svg" xmlns:xlink="http://www.w3.org/1999/xlink">
    <!-- Generator: Sketch 53 (72520) - https://sketchapp.com -->
    <title>Group 7</title>
    <desc>Created with Sketch.</desc>
    <g id="Symbols" stroke="none" stroke-width="1" fill="none" fill-rule="evenodd">
        <g id="Group-7" fill="#FFFFFF">
            <path d="M62.85,17.25 C62.583332,15.8333262 61.583342,15.125 59.85,15.125 C58.9999957,15.125 58.3375024,15.2958316 57.8625,15.6375 C57.3874976,15.9791684 57.15,16.3916642 57.15,16.875 C57.15,17.3583357 57.3041651,17.7374986 57.6125,18.0125 C57.9208349,18.2875014 58.3999967,18.5416655 59.05,18.775 L62.575,20.15 C63.775006,20.616669 64.6999967,21.2041631 65.35,21.9125 C66.0000032,22.6208369 66.325,23.508328 66.325,24.575 C66.325,26.041674 65.7750055,27.2041624 64.675,28.0625 C63.5749945,28.9208376 62.0083435,29.35 59.975,29.35 C58.174991,29.35 56.7166722,28.9083377 55.6,28.025 C54.3499937,27.0583285 53.691667,25.6916755 53.625,23.925 L56.55,23.925 C56.55,25.25834 57.2416597,26.0999982 58.625,26.45 C59.0416687,26.5666672 59.5916632,26.625 60.275,26.625 C60.9583367,26.625 61.5916637,26.4541684 62.175,26.1125 C62.7583362,25.7708316 63.05,25.3125029 63.05,24.7375 C63.05,24.1624971 62.8916682,23.7208349 62.575,23.4125 C62.2583317,23.1041651 61.7416702,22.816668 61.025,22.55 L57.8,21.275 C56.5499937,20.7916642 55.59167,20.2250032 54.925,19.575 C54.25833,18.9249967 53.925,18.0250057 53.925,16.875 C53.925,15.5249932 54.4499947,14.4583372 55.5,13.675 C56.566672,12.8583292 58.0124909,12.45 59.8375,12.45 C61.6625091,12.45 63.0708284,12.8708291 64.0625,13.7125 C65.0541716,14.5541709 65.6249992,15.7333257 65.775,17.25 L62.85,17.25 Z M77.125,28.7 C76.0249945,29.1333355 75.1583365,29.35 74.525,29.35 C73.8916635,29.35 73.3375024,29.2750007 72.8625,29.125 C72.3874976,28.9749992 71.9666685,28.7500015 71.6,28.45 C70.8333295,27.7666632 70.45,26.825006 70.45,25.625 L70.45,18.825 L68.75,18.825 L68.75,16.85 L70.45,16.85 L70.45,13.65 L73.4,13.65 L73.4,16.85 L76.7,16.85 L76.7,18.825 L73.4,18.825 L73.4,25.525 C73.4,26.525005 73.8749952,27.025 74.825,27.025 C75.3083357,27.025 75.9333295,26.891668 76.7,26.625 L77.125,28.7 Z M84.15,21.9 C85.1166715,21.9 86.233327,22.0583317 87.5,22.375 L87.5,21.175 C87.5,20.3249957 87.3291684,19.6958354 86.9875,19.2875 C86.6458316,18.8791646 86.0875039,18.675 85.3125,18.675 C84.5374961,18.675 83.9416687,18.8291651 83.525,19.1375 C83.1083312,19.4458349 82.9,19.8833305 82.9,20.45 L79.675,20.45 C79.675,19.0666597 80.1624951,18.0666697 81.1375,17.45 C82.1125049,16.8333302 83.4749912,16.525 85.225,16.525 C87.7250125,16.525 89.341663,17.3999912 90.075,19.15 C90.3250012,19.750003 90.45,20.4583292 90.45,21.275 L90.45,29 L87.875,29 L87.65,27.375 C86.8666627,28.6916732 85.6666747,29.35 84.05,29.35 C82.4833255,29.35 81.266671,28.9666705 80.4,28.2 C79.599996,27.466663 79.2,26.5375056 79.2,25.4125 C79.2,24.2874944 79.6416622,23.4208364 80.525,22.8125 C81.4083377,22.2041636 82.616659,21.9 84.15,21.9 Z M87.5,24.25 C86.5166617,23.983332 85.6000042,23.85 84.75,23.85 C83.149992,23.85 82.35,24.383328 82.35,25.45 C82.35,25.9000022 82.5333315,26.2874984 82.9,26.6125 C83.2666685,26.9375016 83.8541626,27.1 84.6625,27.1 C85.4708374,27.1 86.1374974,26.8291694 86.6625,26.2875 C87.1875026,25.7458306 87.4666665,25.0666707 87.5,24.25 Z M97.7,19.25 C98.433337,17.4999912 99.533326,16.625 101,16.625 C101.283335,16.625 101.641664,16.6833327 102.075,16.8 L102.025,19.75 C101.558331,19.6499995 101.100002,19.6 100.65,19.6 C98.6833235,19.6 97.7,20.9583197 97.7,23.675 L97.7,29 L94.75,29 L94.75,16.825 L97.7,16.825 L97.7,19.25 Z M109.15,21.9 C110.116671,21.9 111.233327,22.0583317 112.5,22.375 L112.5,21.175 C112.5,20.3249957 112.329168,19.6958354 111.9875,19.2875 C111.645832,18.8791646 111.087504,18.675 110.3125,18.675 C109.537496,18.675 108.941669,18.8291651 108.525,19.1375 C108.108331,19.4458349 107.9,19.8833305 107.9,20.45 L104.675,20.45 C104.675,19.0666597 105.162495,18.0666697 106.1375,17.45 C107.112505,16.8333302 108.474991,16.525 110.225,16.525 C112.725012,16.525 114.341663,17.3999912 115.075,19.15 C115.325001,19.750003 115.45,20.4583292 115.45,21.275 L115.45,29 L112.875,29 L112.65,27.375 C111.866663,28.6916732 110.666675,29.35 109.05,29.35 C107.483325,29.35 106.266671,28.9666705 105.4,28.2 C104.599996,27.466663 104.2,26.5375056 104.2,25.4125 C104.2,24.2874944 104.641662,23.4208364 105.525,22.8125 C106.408338,22.2041636 107.616659,21.9 109.15,21.9 Z M112.5,24.25 C111.516662,23.983332 110.600004,23.85 109.75,23.85 C108.149992,23.85 107.35,24.383328 107.35,25.45 C107.35,25.9000022 107.533331,26.2874984 107.9,26.6125 C108.266668,26.9375016 108.854163,27.1 109.6625,27.1 C110.470837,27.1 111.137497,26.8291694 111.6625,26.2875 C112.187503,25.7458306 112.466666,25.0666707 112.5,24.25 Z M127.675,27.125 C126.924996,28.6083407 125.775008,29.35 124.225,29.35 C122.674992,29.35 121.375005,28.7583392 120.325,27.575 C119.241661,26.3416605 118.7,24.7750095 118.7,22.875 C118.7,20.9749905 119.216661,19.4333392 120.25,18.25 C121.266672,17.0999942 122.533326,16.525 124.05,16.525 C125.566674,16.525 126.708329,17.1333272 127.475,18.35 L127.475,11.85 L130.45,11.85 L130.45,29 L128.025,29 L127.675,27.125 Z M124.6,19.175 C123.766662,19.175 123.070836,19.5124966 122.5125,20.1875 C121.954164,20.8625034 121.675,21.766661 121.675,22.9 C121.675,24.033339 121.95833,24.9458299 122.525,25.6375 C123.091669,26.3291701 123.808329,26.675 124.675,26.675 C125.39167,26.675 126.03333,26.3916695 126.6,25.825 C127.183336,25.2416637 127.475,24.5083377 127.475,23.625 L127.475,22.05 C127.441666,21.183329 127.150003,20.4750027 126.6,19.925 C126.099997,19.4249975 125.433337,19.175 124.6,19.175 Z M145.9,19.15 C146.683337,17.3999912 148.058323,16.525 150.025,16.525 C151.475007,16.525 152.599996,17.0166617 153.4,18 C154.16667,18.933338 154.55,20.233325 154.55,21.9 L154.55,29 L151.575,29 L151.575,21.9 C151.575,20.9999955 151.358335,20.3208356 150.925,19.8625 C150.491664,19.4041644 149.883337,19.175 149.1,19.175 C148.316663,19.175 147.675002,19.5166632 147.175,20.2 C146.674997,20.8833367 146.408333,21.9166597 146.375,23.3 L146.375,29 L143.425,29 L143.425,21.9 C143.425,20.9999955 143.208335,20.3208356 142.775,19.8625 C142.341664,19.4041644 141.733337,19.175 140.95,19.175 C140.166663,19.175 139.495836,19.5249965 138.9375,20.225 C138.379164,20.9250035 138.083333,21.974993 138.05,23.375 L138.05,29 L135.1,29 L135.1,16.85 L137.675,16.85 L138,18.95 C138.800004,17.3333252 140.083324,16.525 141.85,16.525 C142.866672,16.525 143.712497,16.758331 144.3875,17.225 C145.062503,17.691669 145.566665,18.3333292 145.9,19.15 Z M159.075,16.825 L162.025,16.825 L162.025,29 L159.075,29 L159.075,16.825 Z M158.725,12.925 C158.725,12.391664 158.883332,11.9708349 159.2,11.6625 C159.516668,11.3541651 159.966664,11.2 160.55,11.2 C161.116669,11.2 161.562498,11.3541651 161.8875,11.6625 C162.212502,11.9708349 162.375,12.391664 162.375,12.925 C162.375,13.458336 162.212502,13.8791651 161.8875,14.1875 C161.562498,14.4958349 161.116669,14.65 160.55,14.65 C159.966664,14.65 159.516668,14.4958349 159.2,14.1875 C158.883332,13.8791651 158.725,13.458336 158.725,12.925 Z M169.925,18.95 C170.725004,17.3333252 172.008324,16.525 173.775,16.525 C175.275007,16.525 176.404163,17.0166617 177.1625,18 C177.920837,18.9833382 178.3,20.2833252 178.3,21.9 L178.3,29 L175.35,29 L175.35,21.9 C175.35,20.9999955 175.133335,20.3208356 174.7,19.8625 C174.266664,19.4041644 173.658337,19.175 172.875,19.175 C172.091663,19.175 171.420836,19.5249965 170.8625,20.225 C170.304164,20.9250035 170.008333,21.974993 169.975,23.375 L169.975,29 L167.025,29 L167.025,16.85 L169.6,16.85 L169.925,18.95 Z" id="Staradmin" fill-rule="nonzero"></path>
            <g id="Group">
                <circle id="Oval" opacity="0.318522135" cx="20" cy="20" r="20"></circle>
                <path d="M22.4082031,23.2207031 C22.4082031,22.7193985 22.230796,22.3287774 21.8759766,22.0488281 C21.5211571,21.7688788 20.8977909,21.4791682 20.0058594,21.1796875 C19.1139278,20.8802068 18.3847685,20.5904962 17.8183594,20.3105469 C15.9759022,19.4055944 15.0546875,18.1621173 15.0546875,16.5800781 C15.0546875,15.7923138 15.2841774,15.0973337 15.7431641,14.4951172 C16.2021507,13.8929006 16.8515583,13.4241553 17.6914062,13.0888672 C18.5312542,12.7535791 19.4752552,12.5859375 20.5234375,12.5859375 C21.545578,12.5859375 22.46191,12.7682273 23.2724609,13.1328125 C24.0830119,13.4973977 24.7128884,14.0165982 25.1621094,14.6904297 C25.6113304,15.3642612 25.8359375,16.1341103 25.8359375,17 L22.4179688,17 C22.4179688,16.42057 22.2405617,15.9713558 21.8857422,15.6523438 C21.5309227,15.3333317 21.0507843,15.1738281 20.4453125,15.1738281 C19.8333303,15.1738281 19.3499367,15.3089179 18.9951172,15.5791016 C18.6402977,15.8492852 18.4628906,16.1927063 18.4628906,16.609375 C18.4628906,16.9739602 18.6582012,17.3043605 19.0488281,17.6005859 C19.4394551,17.8968114 20.1262972,18.2027979 21.109375,18.5185547 C22.0924528,18.8343115 22.8997364,19.1744773 23.53125,19.5390625 C25.067716,20.4244836 25.8359375,21.6451745 25.8359375,23.2011719 C25.8359375,24.4446677 25.3671922,25.4212204 24.4296875,26.1308594 C23.4921828,26.8404983 22.2063884,27.1953125 20.5722656,27.1953125 C19.4199161,27.1953125 18.3766323,26.9886088 17.4423828,26.5751953 C16.5081333,26.1617818 15.8050154,25.5953812 15.3330078,24.8759766 C14.8610002,24.1565719 14.625,23.3281297 14.625,22.390625 L18.0625,22.390625 C18.0625,23.1523476 18.2594381,23.7138654 18.6533203,24.0751953 C19.0472025,24.4365252 19.6868445,24.6171875 20.5722656,24.6171875 C21.1386747,24.6171875 21.5862614,24.4951184 21.9150391,24.2509766 C22.2438167,24.0068347 22.4082031,23.6634137 22.4082031,23.2207031 Z" id="S" fill-rule="nonzero"></path>
            </g>
        </g>
    </g>
</svg>