<svg xmlns="http://www.w3.org/2000/svg" width="33" height="36" viewBox="0 0 33 36">
  <g fill="#FFF">
    <path d="M14.2472325 16.7896679C13.9594096 16.501845 13.6236162 16.4059041 13.2398524 16.4538745 12.4243542 16.501845 11.8487085 17.0774908 11.8487085 17.8929889 11.8487085 18.99631 13 19.6678967 13.9114391 19.1402214 14.4391144 18.804428 14.8708487 18.3247232 15.3505535 17.8929889 14.9667897 17.5092251 14.5830258 17.1734317 14.2472325 16.7896679zM19.7638376 16.5498155C19.2361624 16.3099631 18.7564576 16.4059041 18.3247232 16.7896679 17.8929889 17.1254613 17.5571956 17.5092251 17.1254613 17.8929889 17.5092251 18.2767528 17.797048 18.6125461 18.1808118 18.900369 18.4686347 19.1402214 18.804428 19.3321033 19.1881919 19.3321033 20.0516605 19.3800738 20.7712177 18.6125461 20.6752768 17.701107 20.5313653 17.1254613 20.2435424 16.7416974 19.7638376 16.5498155z"/>
    <path d="M29.7416974,6.95571956 L18.99631,0.719557196 C17.3173432,-0.239852399 15.2066421,-0.239852399 13.5276753,0.719557196 L2.78228782,6.95571956 C1.10332103,7.91512915 0.0479704797,9.73800738 0.0479704797,11.704797 L0.0479704797,24.1291513 C0.0479704797,26.095941 1.10332103,27.8708487 2.78228782,28.8782288 L13.5276753,35.1143911 C15.2066421,36.0738007 17.3173432,36.0738007 18.99631,35.1143911 L29.7416974,28.8782288 C31.4206642,27.9188192 32.4760148,26.095941 32.4760148,24.1291513 L32.4760148,11.6568266 C32.4280443,9.73800738 31.4206642,7.91512915 29.7416974,6.95571956 Z M18.2287823,28.5424354 C17.7490775,28.5424354 17.3653137,28.1586716 17.3653137,27.6789668 C17.3653137,27.2472325 17.7490775,26.8154982 18.1808118,26.8634686 C18.7084871,26.8634686 18.99631,27.1512915 18.99631,27.7269373 C18.99631,28.1586716 18.6605166,28.5424354 18.2287823,28.5424354 Z M20.6273063,27.7269373 C20.195572,27.7269373 19.7638376,27.3431734 19.8118081,26.9114391 C19.8118081,26.4797048 20.1476015,26.0479705 20.6273063,26.095941 C21.1549815,26.0479705 21.4428044,26.4797048 21.4907749,26.9114391 C21.5387454,27.3911439 21.1070111,27.7269373 20.6273063,27.7269373 Z M21.2509225,19.6199262 C20.7712177,20.195572 20.1476015,20.4833948 19.4280443,20.5793358 C18.5645756,20.6752768 17.8450185,20.3874539 17.2214022,19.7638376 C16.8856089,19.4280443 16.5498155,19.0922509 16.2140221,18.7564576 C15.9261993,19.0442804 15.6383764,19.3321033 15.3505535,19.6199262 C14.9667897,20.00369 14.5350554,20.2915129 14.0073801,20.4833948 C13.4317343,20.6752768 12.904059,20.6273063 12.3763838,20.4354244 C11.7527675,20.195572 11.2250923,19.8118081 10.9372694,19.2361624 C10.7453875,18.900369 10.601476,18.5166052 10.601476,18.1328413 C10.5535055,17.5092251 10.697417,16.9335793 11.0332103,16.4059041 C11.4649446,15.7343173 12.0885609,15.3505535 12.904059,15.2546125 C13.6236162,15.1107011 14.295203,15.3505535 14.8708487,15.7343173 C15.0627306,15.8302583 15.2066421,16.0221402 15.3505535,16.1660517 C15.6383764,16.4538745 15.9261993,16.7416974 16.2619926,17.0774908 C16.597786,16.7416974 16.9335793,16.4059041 17.2693727,16.0221402 C17.701107,15.5904059 18.2287823,15.3505535 18.8523985,15.2546125 C19.7158672,15.1586716 20.4833948,15.4464945 21.1070111,16.0221402 C22.1143911,16.9815498 22.1623616,18.5645756 21.2509225,19.6199262 Z M26.8154982,18.99631 C26.7195572,19.6678967 26.5756458,20.3394834 26.3837638,21.0110701 C26.095941,22.0184502 25.6642066,22.9298893 25.0885609,23.7933579 C24.7527675,24.2250923 24.4169742,24.6568266 24.0811808,25.0885609 C23.9852399,25.2324723 23.9852399,25.2804428 24.0811808,25.3763838 C24.3210332,25.6162362 24.5608856,25.8560886 24.8487085,26.1439114 C24.3690037,26.1439114 23.9852399,26.1439114 23.601476,26.1439114 C23.1697417,26.1439114 22.7859779,26.1439114 22.3542435,26.1439114 C22.2103321,26.1439114 22.1143911,26.095941 22.1143911,25.9520295 C22.1143911,25.1365314 22.1143911,24.3690037 22.1143911,23.5535055 C22.1143911,23.5535055 22.1143911,23.5055351 22.1623616,23.4575646 C22.402214,23.7453875 22.6900369,23.9852399 22.9298893,24.2250923 C23.0258303,24.3210332 23.1217712,24.3690037 23.2177122,24.2250923 C23.601476,23.697417 24.0332103,23.1697417 24.3690037,22.5940959 C24.896679,21.8265683 25.1845018,20.9630996 25.4243542,20.0516605 C25.6642066,19.0922509 25.7121771,18.0848708 25.6642066,17.0774908 C25.5682657,15.6863469 25.1845018,14.3911439 24.4649446,13.1918819 C24.1291513,12.6162362 23.697417,12.0885609 23.2656827,11.5608856 C22.4501845,10.601476 21.4428044,9.88191882 20.2915129,9.35424354 C19.4760148,8.9704797 18.6125461,8.68265683 17.701107,8.58671587 C16.9815498,8.49077491 16.2619926,8.44280443 15.5424354,8.49077491 C14.4870849,8.58671587 13.4797048,8.82656827 12.5202952,9.25830258 C11.6568266,9.64206642 10.8892989,10.1217712 10.2177122,10.7453875 C9.78597786,11.1291513 9.35424354,11.5608856 9.01845018,12.0405904 C8.58671587,12.5682657 8.25092251,13.1918819 7.91512915,13.7675277 C7.48339483,14.6309963 7.14760148,15.5424354 7.05166052,16.5498155 C7.00369004,17.2693727 6.90774908,17.9889299 6.95571956,18.6605166 C7.05166052,19.7158672 7.29151292,20.7232472 7.72324723,21.6826568 C8.20295203,22.6900369 8.77859779,23.601476 9.54612546,24.3690037 C10.2656827,25.0885609 11.0332103,25.7121771 11.9446494,26.1918819 C12.7601476,26.6236162 13.6236162,26.9114391 14.5350554,27.103321 C15.1107011,27.199262 15.7343173,27.2472325 16.3099631,27.295203 C16.3099631,27.6789668 16.3099631,28.0627306 16.3099631,28.5424354 C15.9261993,28.5424354 15.5424354,28.5424354 15.1586716,28.4944649 C14.4870849,28.398524 13.8154982,28.2546125 13.1439114,28.0627306 C11.9446494,27.7269373 10.8892989,27.1512915 9.88191882,26.3837638 C8.73062731,25.5202952 7.77121771,24.4169742 7.05166052,23.1697417 C6.47601476,22.1623616 6.09225092,21.1070111 5.85239852,20.00369 C5.66051661,19.0922509 5.61254613,18.1808118 5.66051661,17.2693727 C5.75645756,15.6863469 6.18819188,14.1512915 6.95571956,12.7601476 C7.33948339,12.0405904 7.81918819,11.3690037 8.39483395,10.7453875 C9.35424354,9.6900369 10.5055351,8.82656827 11.800738,8.20295203 C12.6162362,7.81918819 13.4797048,7.53136531 14.3911439,7.38745387 C15.1107011,7.24354244 15.8782288,7.19557196 16.6457565,7.19557196 C17.6051661,7.24354244 18.5166052,7.38745387 19.4760148,7.67527675 C20.4833948,7.96309963 21.3948339,8.39483395 22.2583026,9.01845018 C22.7859779,9.40221402 23.2656827,9.78597786 23.7453875,10.2177122 C24.4649446,10.8892989 25.0885609,11.6568266 25.5682657,12.4723247 C26.1439114,13.3837638 26.5276753,14.3911439 26.7675277,15.4464945 C26.8634686,15.9741697 26.9594096,16.5498155 27.0073801,17.1254613 C26.8634686,17.7490775 26.9114391,18.3726937 26.8154982,18.99631 Z"/>
  </g>
</svg>
